HIERARCHY
ROOT Hips
{
  OFFSET -153.918 18.211 -82.9891
  CHANNELS 6 Xposition Yposition Zposition Zrotation Xrotation Yrotation
  JOINT ToSpine
  {
    OFFSET -2.69724 7.43032 -0.144315
    CHANNELS 3 Zrotation Xrotation Yrotation
    JOINT Spine
    {
      OFFSET -0.0310711 10.7595 1.96963
      CHANNELS 3 Zrotation Xrotation Yrotation
      JOINT Spine1
      {
        OFFSET 13.1342 3.43533 0.764692
        CHANNELS 3 Zrotation Xrotation Yrotation
        JOINT Neck
        {
          OFFSET 29.8703 7.82586 -0.130764
          CHANNELS 3 Zrotation Xrotation Yrotation
          JOINT Head
          {
            OFFSET 9.52751 0.295786 -0.907742
            CHANNELS 3 Zrotation Xrotation Yrotation
            End Site
            {
              OFFSET 16.4037 0.713936 2.7358
            }
          }
        }
        JOINT LeftShoulder
        {
          OFFSET 27.5574 4.95586 2.47156
          CHANNELS 3 Zrotation Xrotation Yrotation
          JOINT LeftArm
          {
            OFFSET 1.20734 -0.998971 20.1238
            CHANNELS 3 Zrotation Xrotation Yrotation
            JOINT LeftForeArm
            {
              OFFSET 26.8049 -0.0536703 -0.155908
              CHANNELS 3 Zrotation Xrotation Yrotation
              JOINT LeftHand
              {
                OFFSET 26.6817 0 0.320147
                CHANNELS 3 Zrotation Xrotation Yrotation
                End Site
                {
                  OFFSET 18.6119 0 0.382219
                }
              }
            }
          }
        }
        JOINT RightShoulder
        {
          OFFSET 27.5927 4.71444 -2.65209
          CHANNELS 3 Zrotation Xrotation Yrotation
          JOINT RightArm
          {
            OFFSET 2.83739 -1.17114 -18.7564
            CHANNELS 3 Zrotation Xrotation Yrotation
            JOINT RightForeArm
            {
              OFFSET 28.839 -0.0548439 1.22491
              CHANNELS 3 Zrotation Xrotation Yrotation
              JOINT RightHand
              {
                OFFSET 26.5114 0 -0.101894
                CHANNELS 3 Zrotation Xrotation Yrotation
                End Site
                {
                  OFFSET 18.2168 0 0
                }
              }
            }
          }
        }
      }
    }
  }
  JOINT LeftUpLeg
  {
    OFFSET -4.76168 -1.9167 -10.2353
    CHANNELS 3 Zrotation Xrotation Yrotation
    JOINT LeftLeg
    {
      OFFSET 2.55951 -42.0585 -8.02213
      CHANNELS 3 Zrotation Xrotation Yrotation
      JOINT LeftFoot
      {
        OFFSET 3.16357 -42.5282 -3.95426
        CHANNELS 3 Zrotation Xrotation Yrotation
        JOINT LeftToeBase
        {
          OFFSET 0.346054 -6.02161 12.8035
          CHANNELS 3 Zrotation Xrotation Yrotation
          End Site
          {
            OFFSET 0.134235 -1.35082 5.13018
          }
        }
      }
    }
  }
  JOINT RightUpLeg
  {
    OFFSET -4.94151 -1.41743 10.6446
    CHANNELS 3 Zrotation Xrotation Yrotation
    JOINT RightLeg
    {
      OFFSET -2.56294 -42.0364 -7.94377
      CHANNELS 3 Zrotation Xrotation Yrotation
      JOINT RightFoot
      {
        OFFSET -3.0952 -42.555 -4.02241
        CHANNELS 3 Zrotation Xrotation Yrotation
        JOINT RightToeBase
        {
          OFFSET -0.0828122 -6.13587 12.8035
          CHANNELS 3 Zrotation Xrotation Yrotation
          End Site
          {
            OFFSET -0.131328 -1.35082 5.13018
          }
        }
      }
    }
  }
}
MOTION
Frames:	15
Frame Time:	0.0333333
164.942 13.1837 157.66 -9.91353 7.50722 -44.4389 -70.1915 0 88.8779 109.136 65.1301 -18.097 -13.5072 13.6112 3.74162 170.837 27.5839 -171.437 158.027 66.1385 -119.077 1.84996 0.808025 -16.7499 -97.791 10.2752 -45.8208 25.6557 -25.5885 -131.128 0.420957 0.000575287 0.35866 -1.27708 11.6673 24.2995 -84.5279 -6.41912 70.4249 27.5394 27.1964 130.847 0.58676 0.000331076 0.0646654 -58.0249 0.145557 96.4917 -2.99626 31.5995 -18.777 -5.98509 -4.56324 0.0881663 25.9808 -39.6233 20.7964 -55.6701 -1.92308 90.0764 0.808097 33.8006 19.72 -1.364 -3.5171 0.552537 7.89005 -43.0394 8.30502 
164.939 13.2247 157.596 -9.94724 7.02301 -44.668 -70.1915 0 88.8779 109.75 65.37 -18.5153 -13.3951 13.9012 3.81951 170.146 27.1654 -169.555 154.835 65.3409 -116.707 1.92499 1.56707 -16.9445 -98.6706 10.7516 -47.1013 23.5634 -23.7119 -131.835 0.420957 0.000575287 0.35866 -1.161 11.9604 22.8838 -84.5045 -8.43694 70.7013 27.7558 27.4314 130.812 0.58676 0.000331076 0.0646654 -58.4526 0.150575 97.1998 -3.04029 31.6317 -19.374 -6.20345 -5.33054 0.00533628 25.1696 -38.2985 21.933 -55.9361 -2.21559 89.9519 0.825053 33.6658 19.3786 -1.04069 -3.30903 0.506028 8.35148 -42.8317 10.3103 
165.016 13.2752 157.502 -9.94147 6.8381 -44.9302 -70.1915 0 88.8779 110.096 65.5233 -18.6645 -13.4277 14.2179 3.79705 171.15 27.1071 -169.588 155.341 65.1557 -116.415 2.02304 1.67203 -17.8112 -99.524 9.27738 -47.884 23.7998 -23.8322 -131.652 0.420957 0.000575287 0.35866 -0.961163 11.3929 21.5817 -84.5083 -10.4241 72.4618 29.5852 28.3208 129.509 0.58676 0.000331076 0.0646654 -58.7175 -0.318384 97.0356 -2.99229 31.2925 -19.0555 -6.20529 -4.93454 0.0584327 25.6249 -38.6894 22.2971 -55.9573 -2.49884 90.0227 0.95775 33.9077 19.8243 -1.09202 -2.84839 0.479916 7.60147 -42.9123 7.30304 
165.07 13.2911 157.392 -9.75097 6.46007 -45.0196 -70.1915 0 88.8779 111.1 65.1824 -19.2589 -13.3514 14.0877 3.62432 170.788 26.7981 -168.864 153.808 64.4975 -114.957 2.14366 2.36353 -18.3936 -100.789 8.93466 -48.4183 23.3895 -23.6329 -131.981 0.420957 0.000575287 0.35866 -0.99533 11.9336 21.3736 -84.8734 -10.9815 73.0094 30.5 28.9269 129.023 0.58676 0.000331076 0.0646654 -59.1545 -0.357149 97.118 -2.97178 31.3068 -18.7465 -6.08071 -5.55238 -0.0343409 24.8118 -38.2169 20.9631 -56.3682 -3.3682 88.0346 0.970828 33.8864 21.9685 -1.81103 -2.01751 0.504568 7.88689 -45.1275 6.39676 
165.169 13.2952 157.291 -10.237 5.89545 -45.1489 -70.1915 0 88.8779 111.416 65.6545 -19.3958 -12.9637 14.4543 4.04837 170.549 26.5862 -168.556 154.165 64.4551 -114.996 2.25409 2.56398 -19.2237 -102.442 9.07098 -48.8156 24.1594 -24.4875 -131.898 0.420957 0.000575287 0.35866 -0.809827 11.6142 19.9203 -84.4989 -12.8085 74.1592 31.5336 29.3971 128.298 0.58676 0.000331076 0.0646654 -59.4057 -0.455835 97.1142 -2.97214 31.0706 -19.0058 -5.16612 -4.56023 0.0147911 25.4599 -38.6005 22.0135 -56.2964 -3.34613 88.4246 1.11055 33.9936 21.3543 -1.07947 -2.627 0.463525 7.76571 -43.9755 6.95411 
165.327 13.2843 157.144 -10.1321 5.45453 -45.3557 -70.1915 0 88.8779 112.912 65.2776 -20.8744 -13.4711 14.1938 4.34755 170.638 26.245 -167.835 153.503 63.9288 -114.038 2.4003 2.99998 -20.1311 -104.085 8.51246 -48.9798 23.5788 -24.3452 -132.521 0.420957 0.000575287 0.35866 -0.832858 11.945 19.8605 -84.6245 -12.5534 75.2981 32.0034 29.5072 127.885 0.58676 0.000331076 0.0646654 -60.0482 -0.803452 96.6715 -2.94188 30.7068 -18.9575 -5.40974 -4.87052 -0.00253047 26.1679 -39.0639 22.9699 -56.9891 -3.86741 87.1723 1.00684 33.6147 23.4081 -2.22289 -0.729034 0.476327 8.46965 -48.7125 5.53072 
165.5 13.2326 156.997 -10.4337 4.98417 -45.3768 -70.1915 0 88.8779 113.277 65.5115 -20.6004 -12.9643 14.6425 3.99215 170.911 26.2366 -168.004 153.94 63.8858 -113.832 2.45291 3.01274 -20.5721 -105.561 9.35584 -49.2094 26.1939 -26.7866 -131.661 0.420957 0.000575287 0.35866 -0.743062 11.8565 19.0938 -84.6867 -13.3823 75.2803 32.0199 29.3996 127.775 0.58676 0.000331076 0.0646654 -60.2714 -0.632198 96.8949 -3.00356 30.8124 -19.732 -5.55923 -5.02265 -0.00893619 25.4216 -38.6396 21.773 -56.9464 -3.99909 87.1197 1.02628 33.6555 21.2537 -0.784664 -2.57413 0.428095 9.00204 -48.5618 7.29603 
165.691 13.2957 156.831 -10.6399 4.84092 -45.7097 -70.1915 0 88.8779 113.209 65.6033 -20.671 -12.928 14.7489 3.88363 171.406 26.311 -168.279 153.957 63.8115 -113.842 2.45906 2.82986 -20.7936 -106.838 10.6313 -49.2877 25.6082 -27.0086 -132.619 0.420957 0.000575287 0.35866 -0.770222 11.65 19.5193 -84.818 -12.1313 75.8455 31.3246 28.6303 127.852 0.58676 0.000331076 0.0646654 -60.3222 -1.13343 96.5218 -2.99258 30.5729 -19.8077 -5.01229 -4.26683 0.037003 25.9043 -39.0689 22.1109 -56.668 -4.18728 87.4166 1.0428 33.9546 20.7375 -0.963795 -2.35857 0.432564 8.17517 -47.1348 5.77036 
165.849 13.3015 156.699 -10.8228 4.40689 -45.6386 -70.1915 0 88.8779 114.009 65.8394 -21.0441 -12.5593 15.2673 3.8262 171.617 26.322 -168.598 154.998 64.0984 -114.885 2.60256 3.32416 -21.5519 -107.637 12.3742 -51.04 25.1806 -27.8375 -133.965 0.420957 0.000575287 0.35866 -0.528153 11.1756 17.5189 -84.0382 -14.6991 76.1112 32.0555 28.7098 127.137 0.58676 0.000331076 0.0646654 -60.5642 -0.741146 96.963 -3.07393 30.7294 -20.8451 -4.54312 -4.01343 0.0236701 27.0635 -39.971 23.2019 -56.6816 -4.24722 87.0403 1.2723 34.2584 20.1411 -1.55221 -3.01946 0.539435 8.74959 -50.0439 5.42709 
165.995 13.3447 156.514 -11.0082 3.78683 -45.8681 -70.1915 0 88.8779 114.822 65.9685 -21.8025 -12.5027 15.6295 3.64281 172.935 26.2788 -168.912 156.251 63.996 -114.78 2.60868 2.47908 -22.4665 -109.765 11.549 -51.4632 24.6269 -28.6393 -135.432 0.420957 0.000575287 0.35866 -0.461497 10.9408 17.008 -83.8422 -14.827 76.5997 31.9733 28.1014 126.684 0.58676 0.000331076 0.0646654 -61.0776 -0.980888 96.8274 -3.06589 30.4089 -21.0878 -4.84786 -4.20823 0.0289009 27.075 -39.9775 23.2191 -57.1425 -4.4776 86.7187 1.35164 34.0119 21.6838 -1.07994 -0.607772 0.326568 7.18018 -49.5892 1.01701 
166.152 13.386 156.375 -11.1713 3.15441 -45.9396 -70.1915 0 88.8779 115.7 65.9961 -23.0227 -12.4225 15.6865 4.24116 172.782 25.9599 -168.166 155.511 63.4691 -113.458 2.68959 2.19853 -23.5151 -111.461 11.2781 -52.187 25.27 -30.0085 -135.812 0.420957 0.000575287 0.35866 -0.356529 10.7509 16.0515 -83.3099 -15.0067 77.6118 32.1753 27.7386 126.143 0.58676 0.000331076 0.0646654 -61.5924 -0.97508 96.8689 -2.99731 29.9688 -20.557 -4.83886 -3.96216 0.0578973 27.4909 -41.0421 21.5926 -57.3539 -4.60681 86.2981 1.42168 34.2818 22.0697 -0.49697 -0.900572 0.274984 6.56468 -50.7616 -1.40097 
166.275 13.424 156.165 -11.0737 2.67837 -46.0949 -70.1915 0 88.8779 116.222 65.7854 -23.5596 -12.2193 16.0095 3.79651 174.119 26.2121 -169.77 157.433 63.7159 -114.473 2.65308 1.1601 -24.5051 -113.477 8.15124 -51.3739 22.4121 -28.0325 -137.877 0.420957 0.000575287 0.35866 -0.366458 8.91382 17.4071 -83.722 -12.1097 80.132 32.2342 26.7375 125.159 0.58676 0.000331076 0.0646654 -62.1931 -1.11442 96.9055 -3.02031 29.5379 -21.5126 -4.77502 -3.35507 0.124992 27.508 -41.9949 19.1984 -57.6463 -5.49761 84.7978 1.83447 34.6248 22.5898 -0.237327 -0.42237 0.207314 6.09907 -49.8912 -2.40071 
166.417 13.5613 155.939 -11.7402 1.55154 -46.4978 -70.1915 0 88.8779 116.457 66.1136 -24.3432 -11.7595 16.1703 4.16325 175.21 26.0063 -169.638 158.426 63.5644 -114.551 2.79285 0.561231 -26.8342 -115.481 5.76922 -51.7818 21.3832 -27.6279 -138.963 0.420957 0.000575287 0.35866 -0.340302 9.07528 16.9698 -82.6372 -10.9706 81.852 30.6877 24.7608 124.853 0.58676 0.000331076 0.0646654 -62.6815 -1.19522 97.3513 -2.96054 29.0734 -21.3144 -5.11022 -4.13025 0.0629589 26.5648 -41.8607 16.7472 -57.4206 -6.14758 84.4598 2.44406 35.353 21.2942 1.382 0.135407 -0.0476648 3.49204 -46.3387 -9.75646 
166.595 13.6933 155.635 -12.0629 0.644658 -46.7212 -70.1915 0 88.8779 116.457 65.8591 -24.1558 -11.0903 15.9413 3.419 174.983 25.3109 -169.666 159.547 63.2442 -116.218 2.75234 0.317054 -26.8213 -118.332 4.62276 -51.5407 20.4363 -26.978 -139.736 0.420957 0.000575287 0.35866 -0.329053 9.77146 16.3666 -81.8143 -10.6928 83.2084 30.2725 23.5209 124 0.58676 0.000331076 0.0646654 -63.2772 -1.41261 97.3564 -2.90951 28.4635 -21.7769 -4.80637 -3.64508 0.0931243 27.8265 -42.9289 17.8241 -57.1883 -8.26301 80.8327 3.0952 36.5354 18.3554 0.878491 1.14257 -0.0662856 2.24412 -44.4468 -14.1188 
166.762 13.9066 155.125 -12.1708 -0.160488 -46.9382 -70.1915 0 88.8779 116.751 65.3587 -24.2366 -10.2832 15.6823 2.73926 176.029 25.3875 -169.881 158.388 62.4411 -113.217 2.73144 0.000237866 -27.1504 -122.461 4.38806 -50.6284 20.3432 -27.4488 -140.324 0.420957 0.000575287 0.35866 -0.245903 10.4281 15.0863 -81.6238 -11.4269 85.3215 30.3699 22.4303 122.711 0.58676 0.000331076 0.0646654 -64.0377 -1.8823 97.3006 -2.84019 27.7092 -22.1114 -4.47569 -3.22246 0.110532 28.3303 -43.3304 18.2777 -56.9498 -11.6636 74.7728 3.38024 38.4801 16.8666 1.4943 1.5317 -0.18764 3.17753 -40.9764 -10.0017 
